<svg width="1173" height="1065" viewBox="0 0 1173 1065" fill="none" xmlns="http://www.w3.org/2000/svg">
<path d="M815.835 24.2831C816.969 24.6628 818.103 25.0426 819.271 25.4339C845.452 34.2239 870.461 44.0501 894.79 56.9317C899.951 59.6614 905.196 62.1289 910.525 64.5419C924.243 71.0995 936.82 79.6283 949.534 87.8203C952.598 89.7893 955.672 91.7373 958.761 93.6693C979.013 106.444 998.004 120.387 1015.51 136.518C1019.11 139.812 1022.73 142.959 1026.51 146.046C1042.73 159.685 1057.52 174.791 1070.65 191.238C1072.32 193.291 1074 195.342 1075.68 197.393C1086.9 211.229 1097.02 225.39 1106.36 240.472C1108 243.095 1109.71 245.68 1111.43 248.259C1141.4 293.484 1158.24 343.954 1169.32 396.192C1170.13 399.89 1170.13 399.89 1171.76 404.374C1173.66 422.934 1173.66 422.934 1169.69 430.331C1165.61 434.932 1161.94 438.669 1155.53 439.538C1153.67 439.618 1153.67 439.618 1151.78 439.699C1150.56 439.776 1149.34 439.853 1148.09 439.933C1142.14 438.72 1138.22 435.513 1134.25 431.213C1132.46 426.961 1131.27 423.426 1130.26 419.02C1129.96 417.85 1129.66 416.68 1129.35 415.474C1128.4 411.748 1127.5 408.013 1126.61 404.275C1125.99 401.808 1125.37 399.342 1124.74 396.877C1123.25 390.969 1121.8 385.054 1120.35 379.136C1117.34 366.825 1114.21 354.714 1109.79 342.801C1109.38 341.694 1108.97 340.586 1108.54 339.445C1101.96 322.061 1094.33 305.45 1085.33 289.123C1084.67 287.933 1084.02 286.743 1083.34 285.516C1075.52 271.395 1067.46 257.812 1057.6 244.917C1056.33 243.171 1055.06 241.421 1053.79 239.669C1027.74 203.676 995.752 169.224 959.755 142.296C958.02 140.951 956.287 139.602 954.557 138.251C889.291 87.5123 791.337 23.6253 705.347 22.3096C749.645 29.5653 803.04 61.8443 839.411 85.1955C842.442 87.1063 845.514 88.9313 848.611 90.7393C883.96 111.44 916.887 136.434 945.702 165.102C949.089 168.303 952.513 171.307 956.092 174.297C976.241 191.229 994.599 209.835 1010.31 230.708C1011.78 232.617 1011.78 232.617 1013.29 234.565C1021.21 244.92 1028.37 255.551 1035.18 266.625C1036.22 268.324 1037.27 270.023 1038.35 271.774C1066.31 317.643 1066.31 317.643 1074 342.548C1075.43 347.177 1077.11 351.56 1079.01 356.023C1088.15 377.731 1093.37 400.262 1096.1 423.51C1096.47 427.954 1096.47 427.954 1098.37 431.213C1107.75 486.861 1100.2 549.626 1083.69 603.3C1083.37 604.375 1083.04 605.451 1082.7 606.56C1078.83 619.041 1073.96 630.881 1068.12 642.627C1065.92 647.16 1064.04 651.715 1062.19 656.386C1049.96 685.179 1030.36 711.788 1010.31 735.917C1009.6 736.766 1008.9 737.616 1008.17 738.492C997.818 750.846 986.62 762.321 975.044 773.61C973.78 774.849 972.515 776.087 971.213 777.364C962.451 785.8 953.223 793.339 943.447 800.647C942.397 801.449 941.348 802.251 940.267 803.078C909.506 826.546 875.473 844.939 840.705 862.218C839.428 862.859 838.15 863.5 836.834 864.16C801.638 881.511 761.138 890.487 722.675 898.13C714.462 899.798 706.724 902.113 698.824 904.845C815.48 908.125 926.026 870.099 1015.2 797.489C1016.27 796.651 1017.34 795.812 1018.44 794.948C1024.52 790.1 1029.67 784.858 1034.76 779.043C1037.89 775.543 1041.13 772.16 1044.4 768.786C1065.78 746.649 1082.83 721.674 1099.03 695.831C1103.17 689.229 1106.5 685.328 1110.99 679.513C1093.65 791.463 1049.47 896.327 954.353 968.095C950.752 970.741 947.106 973.32 943.447 975.89C941.631 977.203 939.815 978.517 938 979.831C924.25 989.68 909.861 998.45 895.125 1006.84C892.569 1008.3 890.02 1009.77 887.479 1011.25C864.319 1024.68 840.153 1033.86 814.612 1042.2C813.114 1042.69 811.617 1043.19 810.073 1043.7C790.37 1050.12 770.588 1054.2 750.046 1057.18C746.416 1057.71 742.788 1058.25 739.163 1058.81C697.174 1065.16 655.505 1065.14 613.094 1064.94C465.796 1064.34 286.455 1008.51 178.202 911.744L181.464 907.796C181.464 907.796 209.265 916.875 219.865 901.539C226.102 892.515 227.127 882.536 222.234 870.695L225.496 866.748C319.353 956.669 512.598 1028.63 653.161 999.57C532.441 1000.23 418.785 978.365 315.581 911.161C314.156 910.271 312.73 909.382 311.262 908.466C286.938 893.144 263.788 876.245 242.194 857.482C240.969 856.43 240.969 856.43 239.72 855.357C227.137 844.521 215.186 833.07 203.258 821.565C201.803 820.164 200.348 818.763 198.849 817.319C190.671 809.383 182.838 801.285 175.33 792.753C173.724 790.969 172.117 789.187 170.508 787.406C125.118 736.759 85.3203 679.898 59.2819 617.591C58.0317 614.636 56.7226 611.704 55.4075 608.776C50.863 598.358 46.0636 590.312 39.9721 576.46C41.6315 588.192 44.1642 599.256 47.9542 610.515C49.1483 614.102 50.2667 617.713 51.305 621.344C57.6904 643.083 67.6666 663.363 77.4809 683.817C77.9482 684.794 78.4154 685.772 78.8969 686.779C99.2745 729.369 123.251 767.925 153.727 804.513C155.596 806.763 157.441 809.032 159.283 811.303C169.439 823.652 180.631 835.011 191.838 846.458C196.512 851.235 201.169 856.026 205.806 860.837C206.59 861.639 207.374 862.44 208.181 863.266C221.952 877.585 221.952 877.585 221.809 885.9C220.849 902.682 209.265 909.433 190.51 907.064C178.279 904.696 171.241 895.16 163.405 886.788C162.358 885.687 161.312 884.586 160.234 883.452C150.893 873.516 142.113 863.205 133.658 852.556C131.286 849.574 128.885 846.615 126.482 843.656C107.021 819.41 91.0615 792.925 76.0173 765.945C74.3652 763.015 72.6667 760.117 70.9449 757.224C35.1595 695.581 17.159 625.168 6.22793 555.919C-4.7026 486.67 -5.26579 361.54 38.271 302.977C38.2312 317.415 38.2751 331.855 38.2567 346.294C38.2483 352.702 38.2369 359.109 38.2182 365.517C38.0469 424.735 48.103 480.59 70.8454 535.86C72.2915 539.418 73.6711 542.986 75.0155 546.581C80.427 560.62 87.4674 573.905 94.9102 587.018C95.7601 588.52 96.6099 590.022 97.4855 591.569C105.006 604.74 113.032 617.53 121.513 630.139C123.194 632.66 123.194 632.66 124.909 635.233C131.682 645.244 138.906 654.798 146.485 664.243C149.404 667.88 149.167 667.091 151.613 670.248C152.429 671.038 151.613 670.248 152.499 671.187C155.274 674.354 157.877 677.539 160.449 680.857C175.343 699.978 191.766 717.632 209.311 734.492C212.142 737.215 214.955 739.955 217.767 742.697C228.65 753.247 239.865 762.993 251.979 772.229C254.164 773.96 256.346 775.697 258.521 777.44C282.122 796.195 306.472 814.239 331.889 830.643C332.427 818.66 332.965 806.678 333.52 794.332C441.256 811.715 474.715 877.089 504.654 883.452C569.581 896.126 647.794 859.882 710.24 840.116C711.396 839.75 712.552 839.384 713.743 839.008C749.287 827.473 781.404 810.061 810.982 787.913C846.985 760.996 872.339 726.65 884.737 683.817C885.025 682.865 885.313 681.913 885.61 680.932C888.696 669.489 888.647 657.983 888.611 646.223C888.61 645.141 888.609 644.06 888.608 642.946C888.538 624.416 886.816 606.942 881.476 589.09C881.144 587.958 880.811 586.826 880.469 585.659C864.211 532.161 825.464 489.578 775.413 462.845C709.493 429.168 647.321 440.685 568.358 440.685C567.82 565.725 594.555 754.624 594 883.452C575.642 881.675 578.244 948.623 548.5 901.539C547.457 901.159 535.075 898.521 534 898.13C523.993 939.391 501.107 973.109 517.5 870.695C517.5 959.495 504.654 939.5 488.5 927C488.5 936.5 494.946 877.303 478.173 870.09C478.173 923.073 372.102 821.938 333.52 794.332C343.173 819.232 302.282 695.103 301.311 694.41C281.155 679.928 262.37 663.857 243.825 647.505C242.229 646.125 240.634 644.746 238.99 643.324C228.493 634.206 218.868 624.63 209.578 614.351C206.829 611.453 204.077 608.559 201.321 605.668C193.911 597.767 186.947 589.651 180.223 581.197C179.504 580.3 178.785 579.403 178.045 578.478C159.958 555.84 143.75 532.172 129.667 506.994C129.154 506.079 128.64 505.164 128.111 504.222C108.712 469.309 94.5286 431.254 85.1254 392.73C84.7097 391.041 84.294 389.352 83.8657 387.612C74.1516 346.143 73.3146 292.156 85.6349 251.232C86.0987 249.678 86.5626 248.124 87.0405 246.523C106.248 183.914 144.502 136.391 203.443 103.977C258.306 75.4402 323.734 62.9732 385.604 63.0618C387.313 63.0624 387.313 63.0624 389.056 63.0631C428.675 63.1305 469.034 63.9792 508.018 71.2517C510.171 71.6305 512.324 72.0087 514.478 72.3864C575.84 83.6548 636.18 103.306 692.301 129.666C693.544 130.246 694.787 130.827 696.068 131.425C702.933 134.641 752.641 160.303 764.057 177.029C732.915 167.417 703.954 156.814 672.935 146.046C658.394 141.18 643.804 136.926 628.903 133.218C627.202 132.794 625.502 132.369 623.75 131.932C618.342 130.609 612.924 129.34 607.498 128.087C606.436 127.838 605.374 127.589 604.279 127.332C585.305 122.907 566.292 119.845 546.953 117.335C542.33 116.735 537.709 116.118 533.089 115.497C508.829 112.264 485.123 110.343 460.622 110.326C459.255 110.325 457.888 110.324 456.479 110.323C432.611 110.352 409.288 111.667 385.706 115.457C384.091 115.711 382.476 115.965 380.812 116.227C325.913 125.212 273.019 145.759 232.409 183.345C230.372 185.112 230.372 185.112 228.294 186.915C170.762 238.755 170.609 327.454 202.137 392.434C215.437 420.338 233.007 445.757 253.61 469.103C254.743 470.396 255.876 471.688 257.043 473.02C267.07 484.14 278.096 494.057 289.488 503.837C290.372 504.597 291.256 505.357 292.167 506.14C301.634 514.224 311.254 521.663 321.661 528.59C322.646 529.247 323.63 529.905 324.644 530.582C327.058 532.194 329.473 533.803 331.889 535.412C331.896 533.778 331.903 532.144 331.91 530.461C332.078 490.763 332.255 451.066 332.443 411.368C332.533 392.171 332.62 372.974 332.7 353.777C332.77 337.051 332.845 320.325 332.928 303.6C332.971 294.738 333.012 285.876 333.045 277.014C333.077 268.683 333.117 260.352 333.162 252.021C333.177 248.954 333.19 245.887 333.199 242.82C333.213 238.651 333.236 234.483 333.262 230.315C333.264 229.085 333.265 227.855 333.267 226.587C333.334 218.258 333.334 218.258 335.151 216.499C337.612 216.344 340.081 216.3 342.548 216.298C344.15 216.294 345.752 216.29 347.403 216.285C349.178 216.288 350.952 216.291 352.781 216.295C354.641 216.292 356.501 216.289 358.418 216.286C364.643 216.279 370.868 216.284 377.093 216.289C381.47 216.288 385.847 216.287 390.223 216.285C399.475 216.282 408.727 216.286 417.979 216.293C427.309 216.301 436.639 216.301 445.969 216.293C503.635 216.246 561.264 216.628 618.914 218.078C606.682 205.298 556.587 192.104 542.987 188.994C538.623 187.994 534.272 186.951 529.919 185.91C502.043 179.38 433.815 168.987 403.213 171.936C474.435 132.959 602.761 161.717 680.927 180.976C685.266 182.04 689.611 183.077 693.957 184.115C709.919 187.989 725.475 192.792 741.025 197.991C744.384 199.098 747.753 200.163 751.131 201.211C761.84 204.542 772.214 208.147 782.374 212.845C786.606 214.79 790.86 216.672 795.132 218.534C855.831 245.192 855.831 245.192 878.271 260.199C881.763 262.539 881.763 262.539 886.878 265.145C895.073 269.577 902.37 275.307 909.799 280.829C912.462 282.808 915.133 284.776 917.806 286.742C926.39 293.077 934.846 299.505 943.141 306.193C951.296 312.705 959.426 319.013 969.54 322.277C968.679 320.754 968.679 320.754 967.801 319.2C966.996 317.773 966.191 316.346 965.361 314.876C964.455 313.275 963.549 311.673 962.616 310.023C960.8 306.777 959.008 303.518 957.252 300.242C945.653 278.751 932.027 258.24 917.354 238.602C915.743 236.387 914.134 234.171 912.525 231.954C903.538 219.642 894.54 207.78 883.782 196.851C880.652 193.645 877.676 190.395 874.71 187.051C867.402 178.928 859.576 171.326 851.713 163.709C850.282 162.303 848.85 160.898 847.375 159.45C838.726 151.059 829.793 143.323 820.233 135.916C817.055 133.453 813.948 130.954 810.886 128.359C752.69 79.2309 628.903 16.635 533.798 11.0904C625 -5.40372 727.531 -5.43758 815.835 24.2831Z" fill="url(#paint0_linear_11_484)"/>
<defs>
<linearGradient id="paint0_linear_11_484" x1="1196.67" y1="413.12" x2="-4.99675" y2="481.332" gradientUnits="userSpaceOnUse">
<stop offset="0.45" stop-color="#EA580C"/>
<stop offset="0.51" stop-color="#00008B"/>
</linearGradient>
</defs>
</svg>
