<svg width="750" height="500" viewBox="0 0 750 500" fill="none" xmlns="http://www.w3.org/2000/svg">
<path d="M226.028 61.56L235.518 71.051" stroke="#263238" stroke-miterlimit="10" stroke-linecap="round" stroke-linejoin="round"/>
<path d="M235.518 61.56L226.028 71.051" stroke="#263238" stroke-miterlimit="10" stroke-linecap="round" stroke-linejoin="round"/>
<path d="M698.809 236.847L708.3 246.338" stroke="#263238" stroke-miterlimit="10" stroke-linecap="round" stroke-linejoin="round"/>
<path d="M708.3 236.847L698.809 246.338" stroke="#263238" stroke-miterlimit="10" stroke-linecap="round" stroke-linejoin="round"/>
<path d="M150.971 389.422L160.462 398.913" stroke="#263238" stroke-miterlimit="10" stroke-linecap="round" stroke-linejoin="round"/>
<path d="M160.462 389.422L150.971 398.913" stroke="#263238" stroke-miterlimit="10" stroke-linecap="round" stroke-linejoin="round"/>
<path d="M434.924 26.744L444.414 36.235" stroke="#263238" stroke-miterlimit="10" stroke-linecap="round" stroke-linejoin="round"/>
<path d="M444.414 26.744L434.924 36.235" stroke="#263238" stroke-miterlimit="10" stroke-linecap="round" stroke-linejoin="round"/>
<path d="M441.036 461.377L450.526 470.868" stroke="#263238" stroke-miterlimit="10" stroke-linecap="round" stroke-linejoin="round"/>
<path d="M450.526 461.377L441.036 470.868" stroke="#263238" stroke-miterlimit="10" stroke-linecap="round" stroke-linejoin="round"/>
<path d="M542.138 426.561L549.632 434.055" stroke="#263238" stroke-miterlimit="10" stroke-linecap="round" stroke-linejoin="round"/>
<path d="M549.632 426.561L542.138 434.055" stroke="#263238" stroke-miterlimit="10" stroke-linecap="round" stroke-linejoin="round"/>
<path d="M667.34 49.73L674.834 57.225" stroke="#263238" stroke-miterlimit="10" stroke-linecap="round" stroke-linejoin="round"/>
<path d="M674.834 49.73L667.34 57.225" stroke="#263238" stroke-miterlimit="10" stroke-linecap="round" stroke-linejoin="round"/>
<path d="M349.9 74.306C349.9 71.006 347.225 68.331 343.925 68.331C340.625 68.331 337.95 71.006 337.95 74.306C337.95 77.606 340.625 80.281 343.925 80.281C347.225 80.282 349.9 77.606 349.9 74.306Z" stroke="#263238" stroke-miterlimit="10" stroke-linecap="round" stroke-linejoin="round"/>
<path d="M62.8445 53.826C62.8445 50.526 60.1695 47.851 56.8695 47.851C53.5695 47.851 50.8945 50.526 50.8945 53.826C50.8945 57.126 53.5695 59.801 56.8695 59.801C60.1695 59.802 62.8445 57.126 62.8445 53.826Z" stroke="#263238" stroke-miterlimit="10" stroke-linecap="round" stroke-linejoin="round"/>
<path d="M653.858 417.345C653.858 414.045 651.183 411.37 647.883 411.37C644.583 411.37 641.908 414.045 641.908 417.345C641.908 420.645 644.583 423.32 647.883 423.32C651.183 423.32 653.858 420.645 653.858 417.345Z" stroke="#263238" stroke-miterlimit="10" stroke-linecap="round" stroke-linejoin="round"/>
<path d="M161.316 473.665C161.316 470.365 158.641 467.69 155.341 467.69C152.041 467.69 149.366 470.365 149.366 473.665C149.366 476.965 152.041 479.64 155.341 479.64C158.641 479.64 161.316 476.965 161.316 473.665Z" stroke="#263238" stroke-miterlimit="10" stroke-linecap="round" stroke-linejoin="round"/>
<path d="M63.1814 244.29C63.1814 240.99 60.5064 238.315 57.2064 238.315C53.9064 238.315 51.2314 240.99 51.2314 244.29C51.2314 247.59 53.9064 250.265 57.2064 250.265C60.5064 250.265 63.1814 247.59 63.1814 244.29Z" stroke="#263238" stroke-miterlimit="10" stroke-linecap="round" stroke-linejoin="round"/>
<path d="M353.828 364.097C353.828 360.797 351.153 358.122 347.853 358.122C344.553 358.122 341.878 360.797 341.878 364.097C341.878 367.397 344.553 370.072 347.853 370.072C351.153 370.073 353.828 367.397 353.828 364.097Z" stroke="#263238" stroke-miterlimit="10" stroke-linecap="round" stroke-linejoin="round"/>
<path d="M724.009 360.372L735.049 362.254" stroke="#263238" stroke-miterlimit="10" stroke-linecap="round" stroke-linejoin="round"/>
<path d="M167.615 375.482L504.759 322.988L716.971 359.172" stroke="#263238" stroke-miterlimit="10" stroke-linecap="round" stroke-linejoin="round"/>
<path d="M20.832 398.337L152.963 377.764" stroke="#263238" stroke-miterlimit="10" stroke-linecap="round" stroke-linejoin="round"/>
<path d="M591.709 80.608L387.807 105.154L388.212 359.586L593.699 392.35L683.498 373.743L683.903 91.806L591.709 80.608Z" fill="#DBDBDB" stroke="#263238" stroke-miterlimit="10" stroke-linecap="round" stroke-linejoin="round"/>
<path d="M674.23 365.873L608.894 356.002" stroke="#263238" stroke-miterlimit="10" stroke-linecap="round" stroke-linejoin="round"/>
<path d="M634.865 202.002C651.123 202.002 664.304 183.904 664.304 161.578C664.304 139.252 651.123 121.154 634.865 121.154C618.606 121.154 605.426 139.252 605.426 161.578C605.426 183.904 618.606 202.002 634.865 202.002Z" fill="white"/>
<path d="M634.865 198.189C649.59 198.189 661.527 181.798 661.527 161.578C661.527 141.358 649.59 124.967 634.865 124.967C620.14 124.967 608.203 141.358 608.203 161.578C608.203 181.798 620.14 198.189 634.865 198.189Z" fill="#1BD8D8"/>
<path d="M634.865 175.01C640.267 175.01 644.647 168.996 644.647 161.578C644.647 154.16 640.267 148.146 634.865 148.146C629.463 148.146 625.083 154.16 625.083 161.578C625.083 168.996 629.463 175.01 634.865 175.01Z" fill="#263238" stroke="#263238" stroke-miterlimit="10" stroke-linecap="round" stroke-linejoin="round"/>
<path d="M572.282 157.611L447.818 161.005V272.175L575.111 286.035V160.157L572.282 157.611Z" fill="#263238" stroke="#263238" stroke-miterlimit="10" stroke-linecap="round" stroke-linejoin="round"/>
<path d="M437.994 247.789C454.252 247.789 467.433 229.691 467.433 207.365C467.433 185.039 454.252 166.941 437.994 166.941C421.735 166.941 408.555 185.039 408.555 207.365C408.555 229.691 421.735 247.789 437.994 247.789Z" fill="white"/>
<path d="M437.994 243.976C452.719 243.976 464.656 227.585 464.656 207.365C464.656 187.145 452.719 170.754 437.994 170.754C423.269 170.754 411.332 187.145 411.332 207.365C411.332 227.585 423.269 243.976 437.994 243.976Z" fill="#1BD8D8"/>
<path d="M437.994 220.797C443.396 220.797 447.776 214.783 447.776 207.365C447.776 199.947 443.396 193.933 437.994 193.933C432.591 193.933 428.212 199.947 428.212 207.365C428.212 214.783 432.591 220.797 437.994 220.797Z" fill="#263238" stroke="#263238" stroke-miterlimit="10" stroke-linecap="round" stroke-linejoin="round"/>
<path d="M634.865 284.168C651.123 284.168 664.304 266.07 664.304 243.744C664.304 221.418 651.123 203.32 634.865 203.32C618.606 203.32 605.426 221.418 605.426 243.744C605.426 266.07 618.606 284.168 634.865 284.168Z" fill="white"/>
<path d="M634.865 280.355C649.59 280.355 661.527 263.964 661.527 243.744C661.527 223.524 649.59 207.133 634.865 207.133C620.14 207.133 608.203 223.524 608.203 243.744C608.203 263.964 620.14 280.355 634.865 280.355Z" fill="#1BD8D8"/>
<path d="M634.865 257.176C640.267 257.176 644.647 251.162 644.647 243.744C644.647 236.326 640.267 230.312 634.865 230.312C629.463 230.312 625.083 236.326 625.083 243.744C625.083 251.162 629.463 257.176 634.865 257.176Z" fill="#263238" stroke="#263238" stroke-miterlimit="10" stroke-linecap="round" stroke-linejoin="round"/>
<path d="M634.865 366.334C651.123 366.334 664.304 348.236 664.304 325.91C664.304 303.584 651.123 285.486 634.865 285.486C618.606 285.486 605.426 303.584 605.426 325.91C605.426 348.236 618.606 366.334 634.865 366.334Z" fill="white"/>
<path d="M634.865 362.521C649.59 362.521 661.527 346.13 661.527 325.91C661.527 305.69 649.59 289.299 634.865 289.299C620.14 289.299 608.203 305.69 608.203 325.91C608.203 346.13 620.14 362.521 634.865 362.521Z" fill="#1BD8D8"/>
<path d="M634.865 339.342C640.267 339.342 644.647 333.328 644.647 325.91C644.647 318.492 640.267 312.478 634.865 312.478C629.463 312.478 625.083 318.492 625.083 325.91C625.083 333.328 629.463 339.342 634.865 339.342Z" fill="#263238" stroke="#263238" stroke-miterlimit="10" stroke-linecap="round" stroke-linejoin="round"/>
<path d="M528.435 201.313C527.904 201.313 527.365 201.193 526.857 200.939C522.039 198.53 514.886 191.172 509.848 183.443C505.008 176.016 500 165.142 503.633 155.515C505.399 150.835 512.496 142.921 553.559 128.293C575.554 120.458 597.137 114.383 597.352 114.323C599.234 113.798 601.181 114.891 601.709 116.771C602.236 118.65 601.14 120.601 599.261 121.128C564.385 130.913 513.71 148.825 510.244 158.01C507.52 165.228 512.536 174.625 515.768 179.585C520.985 187.59 527.354 193.288 530.017 194.619C531.762 195.491 532.47 197.614 531.597 199.36C530.979 200.598 529.731 201.313 528.435 201.313Z" fill="white" stroke="#263238" stroke-miterlimit="10" stroke-linecap="round" stroke-linejoin="round"/>
<path d="M525.889 222.246C525.209 222.246 524.522 222.05 523.916 221.64C513.873 214.861 510.122 200.689 512.768 179.519C513.985 169.786 518.55 160.991 526.725 152.629C537.705 141.399 555.545 130.835 579.75 121.23C633.73 99.809 659.082 106.954 660.138 107.268C662.007 107.827 663.07 109.796 662.511 111.665C661.954 113.53 660.004 114.595 658.131 114.044C657.789 113.948 633.558 107.48 582.356 127.799C542.707 143.533 522.238 160.737 519.781 180.396C517.491 198.709 520.213 210.615 527.869 215.783C529.487 216.875 529.913 219.071 528.821 220.688C528.138 221.7 527.024 222.246 525.889 222.246Z" fill="white" stroke="#263238" stroke-miterlimit="10" stroke-linecap="round" stroke-linejoin="round"/>
<path d="M521.911 252.167V258.299H544.139L547.205 254.466H556.786V174.369L547.205 172.453L542.606 168.237H524.977L521.911 177.435V252.167Z" fill="white" stroke="#263238" stroke-miterlimit="10" stroke-linecap="round" stroke-linejoin="round"/>
<path d="M537.624 177.435H521.911V252.167H537.624V177.435Z" fill="#1BD8D8" stroke="white" stroke-miterlimit="10" stroke-linecap="round" stroke-linejoin="round"/>
<path d="M583.996 214.609L547.588 211.926V246.035L582.463 251.017L583.996 214.609Z" fill="white" stroke="#263238" stroke-miterlimit="10" stroke-linecap="round" stroke-linejoin="round"/>
<path d="M548 216.081L583.563 219.107" stroke="#263238" stroke-miterlimit="10" stroke-linecap="round" stroke-linejoin="round"/>
<path d="M547.622 221.945L583.374 225.917" stroke="#263238" stroke-miterlimit="10" stroke-linecap="round" stroke-linejoin="round"/>
<path d="M547.812 227.62L582.997 231.781" stroke="#263238" stroke-miterlimit="10" stroke-linecap="round" stroke-linejoin="round"/>
<path d="M547.622 233.295L582.996 237.835" stroke="#263238" stroke-miterlimit="10" stroke-linecap="round" stroke-linejoin="round"/>
<path d="M547.244 238.213L582.428 243.131" stroke="#263238" stroke-miterlimit="10" stroke-linecap="round" stroke-linejoin="round"/>
<path d="M547.434 242.753L582.24 248.239" stroke="#263238" stroke-miterlimit="10" stroke-linecap="round" stroke-linejoin="round"/>
<path d="M547.588 211.926V191.3L549.892 192.624V211.919L547.588 211.926Z" fill="#263238" stroke="#263238" stroke-miterlimit="10" stroke-linecap="round" stroke-linejoin="round"/>
<path d="M407.625 261.43V345.439L413.441 346.052V262.348L407.625 261.43Z" fill="#263238" stroke="#263238" stroke-miterlimit="10" stroke-linecap="round" stroke-linejoin="round"/>
<path d="M413.44 262.348L482.011 258.808V268.603L584.561 279.93V316.052L566.194 321.256L481.093 310.236V331.664L580.887 346.358V374.215L413.44 346.052V262.348Z" fill="#ABABAB" stroke="#263238" stroke-miterlimit="10" stroke-linecap="round" stroke-linejoin="round"/>
<path d="M482.012 268.603L413.135 273.368L548.134 283.297L584.562 279.93L482.012 268.603Z" fill="#ABABAB" stroke="#263238" stroke-miterlimit="10" stroke-linecap="round" stroke-linejoin="round"/>
<path d="M548.134 283.297V318.501L566.195 321.256L584.562 316.052V279.93L548.134 283.297Z" fill="#263238" stroke="#263238" stroke-miterlimit="10" stroke-linecap="round" stroke-linejoin="round"/>
<path d="M413.135 273.368V303.96L481.094 310.236L548.134 318.501V283.297L413.135 273.368Z" fill="#263238" stroke="#263238" stroke-miterlimit="10" stroke-linecap="round" stroke-linejoin="round"/>
<path d="M441.691 305.509L449.335 291.177L504.276 296.671L508.098 300.732" stroke="white" stroke-miterlimit="10" stroke-linecap="round" stroke-linejoin="round"/>
<path d="M515.073 286.971C515.073 286.971 508.032 290.644 509.563 304.726C511.094 318.808 524.869 336.869 535.277 343.297C545.685 349.725 570.175 353.399 573.848 353.093C577.521 352.787 579.664 352.481 579.664 352.481V338.399C579.664 338.399 570.786 340.848 561.297 338.399C551.808 335.95 533.44 309.93 531.297 304.42C529.154 298.91 534.052 293.094 534.052 293.094V288.502L515.073 286.971Z" fill="white" stroke="#263238" stroke-miterlimit="10" stroke-linecap="round" stroke-linejoin="round"/>
<path d="M524.255 288.195C524.255 288.195 518.133 291.256 520.888 304.725C523.643 318.194 535.276 334.419 548.439 342.99C561.602 351.561 573.541 349.725 573.541 349.725" stroke="#263238" stroke-miterlimit="10" stroke-linecap="round" stroke-linejoin="round"/>
<path d="M534.051 288.501C534.051 288.501 527.719 293.623 528.216 302.557C528.712 311.491 542.609 326.132 548.689 332.585" stroke="#263238" stroke-miterlimit="10" stroke-linecap="round" stroke-linejoin="round"/>
<path d="M526.479 290.769C526.479 290.769 523.501 296.229 525.238 305.783C526.975 315.337 542.733 334.073 553.156 340.774" stroke="#263238" stroke-miterlimit="10" stroke-linecap="round" stroke-linejoin="round"/>
<path d="M518.91 287.171C518.91 287.171 515.312 289.032 515.684 299.455C516.056 309.878 524.37 326.877 535.289 337.796" stroke="#263238" stroke-miterlimit="10" stroke-linecap="round" stroke-linejoin="round"/>
<path d="M512.21 301.44C512.21 301.44 510.969 311.987 522.757 328.366" stroke="#263238" stroke-miterlimit="10" stroke-linecap="round" stroke-linejoin="round"/>
<path d="M557.996 341.767C557.996 341.767 568.543 344.125 578.593 344.745" stroke="#263238" stroke-miterlimit="10" stroke-linecap="round" stroke-linejoin="round"/>
<path d="M407.625 261.43L454.982 258.072L482.012 258.808L413.441 262.348L407.625 261.43Z" fill="white" stroke="#263238" stroke-miterlimit="10" stroke-linecap="round" stroke-linejoin="round"/>
<path d="M413.861 323.03L465.907 316.077V329.387L413.663 340.113L413.44 346.052L481.093 331.664V310.236L461.537 308.529L413.464 311.707L413.861 323.03Z" fill="#263238" stroke="#263238" stroke-miterlimit="10" stroke-linecap="round" stroke-linejoin="round"/>
<path d="M417.327 350.896V363.317C417.327 366.483 437.166 369.05 461.638 369.05C486.11 369.05 505.949 366.483 505.949 363.317V350.896H417.327Z" fill="white"/>
<path d="M461.638 356.629C486.11 356.629 505.949 354.062 505.949 350.896C505.949 347.73 486.11 345.163 461.638 345.163C437.166 345.163 417.327 347.73 417.327 350.896C417.327 354.062 437.166 356.629 461.638 356.629Z" fill="#1BD8D8"/>
<path d="M469.64 349.821C469.64 350.811 464.399 351.613 457.935 351.613C451.471 351.613 446.23 350.811 446.23 349.821C446.23 348.832 451.471 348.03 457.935 348.03C464.399 348.03 469.64 348.831 469.64 349.821Z" fill="#263238" stroke="#263238" stroke-miterlimit="10" stroke-linecap="round" stroke-linejoin="round"/>
<path d="M512.118 358.224L511.761 370.64C511.67 373.805 531.427 380.768 555.889 381.471C580.351 382.174 600.256 380.179 600.347 377.014L600.704 360.771L512.118 358.224Z" fill="white"/>
<path d="M600.704 360.771C600.613 363.936 580.709 365.931 556.246 365.228C531.784 364.525 512.027 361.389 512.118 358.224C512.209 355.059 532.113 353.064 556.576 353.767C581.038 354.47 600.795 357.606 600.704 360.771Z" fill="#1BD8D8"/>
<path d="M564.441 358.653C564.413 359.642 559.151 360.293 552.689 360.107C546.227 359.921 541.012 358.969 541.04 357.98C541.069 356.991 546.33 356.34 552.792 356.526C559.254 356.712 564.469 357.664 564.441 358.653Z" fill="#263238" stroke="#263238" stroke-miterlimit="10" stroke-linecap="round" stroke-linejoin="round"/>
<path d="M412.764 103.418V117.232L465.452 123.657L629.94 109.522V88.318L591.709 80.608L412.764 103.418Z" fill="#263238"/>
<path d="M412.764 117.232L573.718 99.884L629.94 109.522L465.452 123.657L412.764 117.232Z" fill="white"/>
<path d="M511.426 233.138H497.925C493.998 233.138 490.815 229.955 490.815 226.028V204.607C490.815 200.68 493.999 197.497 497.925 197.497H511.426C515.353 197.497 518.537 200.681 518.537 204.607V226.028C518.536 229.955 515.353 233.138 511.426 233.138Z" fill="white" stroke="#263238" stroke-miterlimit="10" stroke-linecap="round" stroke-linejoin="round"/>
<path d="M508.846 227.16H500.506C497.722 227.16 495.465 224.903 495.465 222.119V208.515C495.465 205.731 497.722 203.474 500.506 203.474H508.846C511.63 203.474 513.887 205.731 513.887 208.515V222.119C513.887 224.903 511.63 227.16 508.846 227.16Z" fill="#1BD8D8"/>
<path d="M592.081 73.603L593.295 398.013L686.331 377.788L687.14 88.165L592.081 73.603ZM680.667 369.698L604.216 384.665L605.025 86.952L680.667 99.492V369.698Z" fill="#263238" stroke="#263238" stroke-miterlimit="10" stroke-linecap="round" stroke-linejoin="round"/>
<path d="M592.081 73.603L382.549 101.109V363.226L593.294 398.013L592.081 73.603ZM393.066 355.945L391.448 108.39L577.923 88.165L579.137 387.092L393.066 355.945Z" fill="#1BD8D8" stroke="#263238" stroke-miterlimit="10" stroke-linecap="round" stroke-linejoin="round"/>
<path d="M466.939 128.03V154.823" stroke="#263238" stroke-miterlimit="10" stroke-linecap="round" stroke-linejoin="round"/>
<path d="M259.828 436.983C259.828 436.983 313.015 450.928 317.88 450.604C322.745 450.28 539.709 404.227 541.331 403.254C542.952 402.281 545.547 397.092 545.547 397.092L537.763 394.173C537.763 394.173 466.414 380.228 462.847 380.876C459.28 381.525 228.369 417.199 226.099 419.469C223.829 421.739 220.586 424.009 221.559 424.982C222.532 425.956 259.828 436.983 259.828 436.983Z" fill="#263238" stroke="#263238" stroke-miterlimit="10" stroke-linecap="round" stroke-linejoin="round"/>
<path d="M235.181 423.037L311.328 440.858L537.051 395.091" stroke="#B8B8B8" stroke-miterlimit="10" stroke-linecap="round" stroke-linejoin="round"/>
<path d="M315.463 442.788L318.771 444.993L542.338 398.405" stroke="#B8B8B8" stroke-miterlimit="10" stroke-linecap="round" stroke-linejoin="round"/>
<path d="M248.913 423.211L251.717 420.661L308.314 434.428L308.569 438.507" stroke="#B8B8B8" stroke-miterlimit="10" stroke-linecap="round" stroke-linejoin="round"/>
<path d="M308.313 434.428L318.474 432.915L321.628 436.797" stroke="#B8B8B8" stroke-miterlimit="10" stroke-linecap="round" stroke-linejoin="round"/>
<path d="M322.599 436.19L323.57 432.794L332.181 430.732L335.092 434.007L336.305 430.368L356.925 426.245L359.957 429.883" stroke="#B8B8B8" stroke-miterlimit="10" stroke-linecap="round" stroke-linejoin="round"/>
<path d="M363.109 428.428L364.686 425.153L372.206 423.212L375.36 426.608" stroke="#B8B8B8" stroke-miterlimit="10" stroke-linecap="round" stroke-linejoin="round"/>
<path d="M376.573 426.123L377.543 422.363L383.486 421.15L386.64 423.455L388.459 420.18L395.13 419.088L397.435 421.029" stroke="#B8B8B8" stroke-miterlimit="10" stroke-linecap="round" stroke-linejoin="round"/>
<path d="M251.717 420.661L260.862 419.331L263.652 420.301L264.744 417.997L267.169 417.754H271.415L274.568 417.026L277.115 415.45H283.544L288.759 415.328L289.851 413.994L297.492 412.903L302.586 413.752L305.134 410.598L312.775 410.234L315.443 410.355L317.263 409.021L337.033 405.989L341.035 406.474L343.097 404.17L361.048 401.987L368.205 403.078L369.66 404.897" stroke="#B8B8B8" stroke-miterlimit="10" stroke-linecap="round" stroke-linejoin="round"/>
<path d="M355.59 408.294L367.841 405.746" stroke="#B8B8B8" stroke-miterlimit="10" stroke-linecap="round" stroke-linejoin="round"/>
<path d="M370.752 405.625L387.366 409.902L375.846 412.66L359.35 409.264" stroke="#B8B8B8" stroke-miterlimit="10" stroke-linecap="round" stroke-linejoin="round"/>
<path d="M375.846 412.66V418.603" stroke="#B8B8B8" stroke-miterlimit="10" stroke-linecap="round" stroke-linejoin="round"/>
<path d="M395.131 419.088L384.579 416.663L378.029 417.39L377.18 419.331" stroke="#B8B8B8" stroke-miterlimit="10" stroke-linecap="round" stroke-linejoin="round"/>
<path d="M383.486 421.15L371.721 418.603L367.597 420.301L366.991 421.272" stroke="#B8B8B8" stroke-miterlimit="10" stroke-linecap="round" stroke-linejoin="round"/>
<path d="M377.544 422.363L370.994 420.908" stroke="#B8B8B8" stroke-miterlimit="10" stroke-linecap="round" stroke-linejoin="round"/>
<path d="M388.46 420.18L380.576 418.724" stroke="#B8B8B8" stroke-miterlimit="10" stroke-linecap="round" stroke-linejoin="round"/>
<path d="M364.687 425.153L354.62 421.757L362.868 420.544L371.237 422.363" stroke="#B8B8B8" stroke-miterlimit="10" stroke-linecap="round" stroke-linejoin="round"/>
<path d="M353.771 416.663L361.655 419.088L369.781 417.269L362.261 414.843L353.771 416.663Z" stroke="#B8B8B8" stroke-miterlimit="10" stroke-linecap="round" stroke-linejoin="round"/>
<path d="M353.77 416.663L350.98 419.695L354.376 420.908" stroke="#B8B8B8" stroke-miterlimit="10" stroke-linecap="round" stroke-linejoin="round"/>
<path d="M369.78 417.269L371.721 418.603" stroke="#B8B8B8" stroke-miterlimit="10" stroke-linecap="round" stroke-linejoin="round"/>
<path d="M356.925 426.245L306.225 414.601" stroke="#B8B8B8" stroke-miterlimit="10" stroke-linecap="round" stroke-linejoin="round"/>
<path d="M266.198 421.029L316.291 432.552" stroke="#B8B8B8" stroke-miterlimit="10" stroke-linecap="round" stroke-linejoin="round"/>
<path d="M267.775 419.21L321.992 431.945" stroke="#B8B8B8" stroke-miterlimit="10" stroke-linecap="round" stroke-linejoin="round"/>
<path d="M275.66 418.118L330.241 430.005" stroke="#B8B8B8" stroke-miterlimit="10" stroke-linecap="round" stroke-linejoin="round"/>
<path d="M288.517 416.177L332.06 425.881L342.006 423.94" stroke="#B8B8B8" stroke-miterlimit="10" stroke-linecap="round" stroke-linejoin="round"/>
<path d="M379.026 417.377L381.102 412.941L406.679 407.844L414.418 409.732L515.966 391.428L525.62 393.093L529.06 396.311" stroke="#B8B8B8" stroke-miterlimit="10" stroke-linecap="round" stroke-linejoin="round"/>
<path d="M525.621 393.093L425.417 413.4L426.527 416.618" stroke="#B8B8B8" stroke-miterlimit="10" stroke-linecap="round" stroke-linejoin="round"/>
<path d="M430.632 406.964L439.954 409.96L442.506 412.623" stroke="#B8B8B8" stroke-miterlimit="10" stroke-linecap="round" stroke-linejoin="round"/>
<path d="M444.17 404.301L454.823 407.519L456.821 409.849" stroke="#B8B8B8" stroke-miterlimit="10" stroke-linecap="round" stroke-linejoin="round"/>
<path d="M498.212 394.868L507.2 396.977L509.309 398.752" stroke="#B8B8B8" stroke-miterlimit="10" stroke-linecap="round" stroke-linejoin="round"/>
<path d="M509.862 392.871L517.297 395.091L518.74 396.977" stroke="#B8B8B8" stroke-miterlimit="10" stroke-linecap="round" stroke-linejoin="round"/>
<path d="M391.571 417.284L393.79 414.843L403.333 417.617L421.532 414.177L412.322 411.181" stroke="#B8B8B8" stroke-miterlimit="10" stroke-linecap="round" stroke-linejoin="round"/>
<path d="M421.532 414.177L422.975 417.284" stroke="#B8B8B8" stroke-miterlimit="10" stroke-linecap="round" stroke-linejoin="round"/>
<path d="M425.417 413.4L417.76 410.848" stroke="#B8B8B8" stroke-miterlimit="10" stroke-linecap="round" stroke-linejoin="round"/>
<path d="M393.791 414.843L409.881 411.736" stroke="#B8B8B8" stroke-miterlimit="10" stroke-linecap="round" stroke-linejoin="round"/>
<path d="M381.918 413.511L387.799 415.287" stroke="#B8B8B8" stroke-miterlimit="10" stroke-linecap="round" stroke-linejoin="round"/>
<path d="M287.076 420.273L288.491 418.387L293.204 417.327" stroke="#B8B8B8" stroke-miterlimit="10" stroke-linecap="round" stroke-linejoin="round"/>
<path d="M298.626 423.219L299.805 421.334L304.047 420.037" stroke="#B8B8B8" stroke-miterlimit="10" stroke-linecap="round" stroke-linejoin="round"/>
<path d="M311.824 425.223L313.003 424.044L318.424 423.101" stroke="#B8B8B8" stroke-miterlimit="10" stroke-linecap="round" stroke-linejoin="round"/>
<path d="M294.736 430.643L299.45 429.229" stroke="#B8B8B8" stroke-miterlimit="10" stroke-linecap="round" stroke-linejoin="round"/>
<path d="M285.545 428.287L288.727 427.108" stroke="#B8B8B8" stroke-miterlimit="10" stroke-linecap="round" stroke-linejoin="round"/>
<path d="M262.446 422.394L267.985 421.923" stroke="#B8B8B8" stroke-miterlimit="10" stroke-linecap="round" stroke-linejoin="round"/>
<path d="M271.05 424.515L276.825 423.808" stroke="#B8B8B8" stroke-miterlimit="10" stroke-linecap="round" stroke-linejoin="round"/>
<path d="M316.656 416.973L319.366 414.616L325.73 416.266V417.68" stroke="#B8B8B8" stroke-miterlimit="10" stroke-linecap="round" stroke-linejoin="round"/>
<path d="M326.674 416.384L333.509 414.852L335.984 416.62L337.516 413.556L344.705 412.024L347.533 414.734L349.183 411.67L356.489 410.492L359.318 413.084" stroke="#B8B8B8" stroke-miterlimit="10" stroke-linecap="round" stroke-linejoin="round"/>
<path d="M321.842 413.791L348.947 408.606L354.015 409.667" stroke="#B8B8B8" stroke-miterlimit="10" stroke-linecap="round" stroke-linejoin="round"/>
<path d="M333.508 414.852L328.441 412.849" stroke="#B8B8B8" stroke-miterlimit="10" stroke-linecap="round" stroke-linejoin="round"/>
<path d="M337.516 413.556L332.802 412.259" stroke="#B8B8B8" stroke-miterlimit="10" stroke-linecap="round" stroke-linejoin="round"/>
<path d="M349.183 411.67L342.937 410.374" stroke="#B8B8B8" stroke-miterlimit="10" stroke-linecap="round" stroke-linejoin="round"/>
<path d="M315.442 410.355L325.495 412.966" stroke="#B8B8B8" stroke-miterlimit="10" stroke-linecap="round" stroke-linejoin="round"/>
<path d="M318.07 409.313L329.501 412.377" stroke="#B8B8B8" stroke-miterlimit="10" stroke-linecap="round" stroke-linejoin="round"/>
<path d="M327.027 408.135L336.808 411.081" stroke="#B8B8B8" stroke-miterlimit="10" stroke-linecap="round" stroke-linejoin="round"/>
<path d="M330.681 407.31L340.109 410.727L344.705 412.024" stroke="#B8B8B8" stroke-miterlimit="10" stroke-linecap="round" stroke-linejoin="round"/>
<path d="M342.111 406.956L346.589 408.253" stroke="#B8B8B8" stroke-miterlimit="10" stroke-linecap="round" stroke-linejoin="round"/>
<path d="M343.097 404.17L352.954 406.249L353.661 408.724" stroke="#B8B8B8" stroke-miterlimit="10" stroke-linecap="round" stroke-linejoin="round"/>
<path d="M363.678 401.064L471.391 383.504" stroke="#B8B8B8" stroke-miterlimit="10" stroke-linecap="round" stroke-linejoin="round"/>
<path d="M373.144 404.303L482.898 385.748" stroke="#B8B8B8" stroke-miterlimit="10" stroke-linecap="round" stroke-linejoin="round"/>
<path d="M381.547 407.279L494.801 387.499" stroke="#B8B8B8" stroke-miterlimit="10" stroke-linecap="round" stroke-linejoin="round"/>
<path d="M409.554 406.929L506.529 389.599" stroke="#B8B8B8" stroke-miterlimit="10" stroke-linecap="round" stroke-linejoin="round"/>
<path d="M455.562 385.934L499.741 393.998" stroke="#B8B8B8" stroke-miterlimit="10" stroke-linecap="round" stroke-linejoin="round"/>
<path d="M466.432 384.414L506.169 392.479" stroke="#B8B8B8" stroke-miterlimit="10" stroke-linecap="round" stroke-linejoin="round"/>
<path d="M483.262 397.387L449.134 387.687" stroke="#B8B8B8" stroke-miterlimit="10" stroke-linecap="round" stroke-linejoin="round"/>
<path d="M472.159 399.491L441.187 389.79" stroke="#B8B8B8" stroke-miterlimit="10" stroke-linecap="round" stroke-linejoin="round"/>
<path d="M454.978 402.764L425.175 391.777" stroke="#B8B8B8" stroke-miterlimit="10" stroke-linecap="round" stroke-linejoin="round"/>
<path d="M445.51 404.517L416.525 393.414" stroke="#B8B8B8" stroke-miterlimit="10" stroke-linecap="round" stroke-linejoin="round"/>
<path d="M434.759 406.504L406.592 394.933" stroke="#B8B8B8" stroke-miterlimit="10" stroke-linecap="round" stroke-linejoin="round"/>
<path d="M422.836 408.374L396.072 396.452" stroke="#B8B8B8" stroke-miterlimit="10" stroke-linecap="round" stroke-linejoin="round"/>
<path d="M407.41 408.491L385.203 398.206" stroke="#B8B8B8" stroke-miterlimit="10" stroke-linecap="round" stroke-linejoin="round"/>
<path d="M397.007 409.776L375.151 399.725" stroke="#B8B8B8" stroke-miterlimit="10" stroke-linecap="round" stroke-linejoin="round"/>
<path d="M292.288 411.529L294.859 408.607" stroke="#B8B8B8" stroke-miterlimit="10" stroke-linecap="round" stroke-linejoin="round"/>
<path d="M303.857 407.088L308.883 408.958" stroke="#B8B8B8" stroke-miterlimit="10" stroke-linecap="round" stroke-linejoin="round"/>
<path d="M314.61 405.569L319.986 407.322" stroke="#B8B8B8" stroke-miterlimit="10" stroke-linecap="round" stroke-linejoin="round"/>
<path d="M327.467 403.114L334.246 405.452" stroke="#B8B8B8" stroke-miterlimit="10" stroke-linecap="round" stroke-linejoin="round"/>
<path d="M340.09 401.01L347.453 402.764" stroke="#B8B8B8" stroke-miterlimit="10" stroke-linecap="round" stroke-linejoin="round"/>
<path d="M350.375 399.257L357.855 401.595" stroke="#B8B8B8" stroke-miterlimit="10" stroke-linecap="round" stroke-linejoin="round"/>
<path d="M361.595 397.387L367.438 399.141" stroke="#B8B8B8" stroke-miterlimit="10" stroke-linecap="round" stroke-linejoin="round"/>
<path d="M387.307 393.414L392.216 394.933" stroke="#B8B8B8" stroke-miterlimit="10" stroke-linecap="round" stroke-linejoin="round"/>
<path d="M397.592 391.66L403.202 393.063" stroke="#B8B8B8" stroke-miterlimit="10" stroke-linecap="round" stroke-linejoin="round"/>
<path d="M406.708 390.024L412.318 391.076" stroke="#B8B8B8" stroke-miterlimit="10" stroke-linecap="round" stroke-linejoin="round"/>
<path d="M419.447 388.271L425.408 390.024" stroke="#B8B8B8" stroke-miterlimit="10" stroke-linecap="round" stroke-linejoin="round"/>
<path d="M430.901 386.518L437.679 387.921" stroke="#B8B8B8" stroke-miterlimit="10" stroke-linecap="round" stroke-linejoin="round"/>
<path d="M439.433 384.882L446.212 386.518" stroke="#B8B8B8" stroke-miterlimit="10" stroke-linecap="round" stroke-linejoin="round"/>
<path d="M449.017 383.479L454.744 384.999" stroke="#B8B8B8" stroke-miterlimit="10" stroke-linecap="round" stroke-linejoin="round"/>
<path d="M265.99 442.172C265.99 442.172 254.315 426.929 235.18 423.038C216.046 419.146 205.668 425.957 196.263 431.146C186.858 436.335 177.777 440.551 178.75 444.443C179.723 448.335 182.966 451.902 185.885 453.199C188.804 454.496 217.019 464.55 230.316 465.847C243.613 467.144 259.504 463.577 264.369 458.712C269.233 453.847 265.99 442.172 265.99 442.172Z" fill="#A3A3A3" stroke="#263238" stroke-miterlimit="10" stroke-linecap="round" stroke-linejoin="round"/>
<path d="M263.053 438.879C258.459 434.172 248.68 425.783 235.181 423.037C216.046 419.145 205.669 425.956 196.264 431.145C194.476 432.132 192.7 433.083 191.002 434.003C193.001 433.532 206.841 430.457 213.452 434.063C220.587 437.955 233.559 443.468 247.505 443.468C255.428 443.469 260.309 441.166 263.053 438.879Z" fill="#1BD8D8" stroke="#263238" stroke-miterlimit="10" stroke-linecap="round" stroke-linejoin="round"/>
<path d="M266.908 452.639C262.165 455.555 255.117 458.386 245.884 458.062C227.398 457.413 219.939 445.414 208.264 438.928C196.589 432.442 178.752 444.441 178.752 444.441C179.725 448.333 182.968 451.9 185.887 453.198C188.806 454.495 217.021 464.549 230.318 465.846C243.615 467.143 259.506 463.576 264.371 458.711C265.907 457.173 266.632 454.954 266.908 452.639Z" fill="#263238" stroke="#263238" stroke-miterlimit="10" stroke-linecap="round" stroke-linejoin="round"/>
<path d="M74.7109 87.626L69.7969 90.592L96.8929 350.796L101.393 348.913L74.7109 87.626Z" fill="#A3A3A3" stroke="#263238" stroke-miterlimit="10" stroke-linecap="round" stroke-linejoin="round"/>
<path d="M229.465 334.964L208.274 396.505L257.333 386.055C257.333 386.055 248.624 379.959 249.785 370.67C250.946 361.381 262.848 332.933 262.848 332.933L229.465 334.964Z" fill="#A3A3A3" stroke="#263238" stroke-miterlimit="10" stroke-linecap="round" stroke-linejoin="round"/>
<path d="M249.785 370.669C250.946 361.38 262.848 332.932 262.848 332.932L239.357 334.362C237.484 339.779 226.791 369.342 226.272 377.636C225.785 385.424 230.388 389.934 232.406 391.364L257.333 386.054C257.333 386.054 248.624 379.959 249.785 370.669Z" fill="#263238" stroke="#263238" stroke-miterlimit="10" stroke-linecap="round" stroke-linejoin="round"/>
<path d="M74.7109 87.626L101.393 348.913L404.465 320.72L377.783 122.867L74.7109 87.626Z" fill="#263238" stroke="#263238" stroke-miterlimit="10" stroke-linecap="round" stroke-linejoin="round"/>
<path d="M85.2832 98.199L110.959 337.333L394.9 312.665L372.245 132.433L85.2832 98.199Z" fill="#1BD8D8" stroke="#263238" stroke-miterlimit="10" stroke-linecap="round" stroke-linejoin="round"/>
<path d="M268.975 212.959C280.323 206.133 282.952 189.674 274.846 176.197C266.74 162.72 250.968 157.328 239.62 164.154C228.271 170.979 225.643 187.438 233.749 200.916C241.855 214.393 257.626 219.785 268.975 212.959Z" fill="white" stroke="#263238" stroke-miterlimit="10" stroke-linecap="round" stroke-linejoin="round"/>
<path d="M257.062 185.96C261.445 185.08 263.507 180.29 261.666 175.262C259.826 170.234 254.78 166.872 250.397 167.752C246.014 168.632 243.952 173.422 245.793 178.45C247.633 183.478 252.679 186.84 257.062 185.96Z" fill="white" stroke="#263238" stroke-miterlimit="10" stroke-linecap="round" stroke-linejoin="round"/>
<path d="M278.872 198.843C271.515 190.476 261.236 185.455 251.921 186.618C242.719 187.767 236.83 194.657 235.776 203.888C242.593 212.885 253.453 217.742 263.386 215.269C271.447 213.262 277 206.9 278.872 198.843Z" fill="white" stroke="#263238" stroke-miterlimit="10" stroke-linecap="round" stroke-linejoin="round"/>
<path d="M304.22 243.066H218.653L216.297 228.17H301.863L304.22 243.066Z" fill="white" stroke="#263238" stroke-miterlimit="10" stroke-linecap="round" stroke-linejoin="round"/>
<path d="M96.8926 350.796L403.046 322.323L404.465 320.72L101.393 348.913L96.8926 350.796Z" fill="white" stroke="#263238" stroke-miterlimit="10" stroke-linecap="round" stroke-linejoin="round"/>
<path d="M191.325 421.601C191.325 421.601 197.759 415.466 204.043 412.624C210.327 409.781 236.81 399.757 267.033 397.363C297.256 394.969 368.775 393.623 373.563 393.473C378.351 393.323 383.887 392.875 384.485 391.229C385.084 389.583 385.35 382.282 385.35 382.282L364.159 390.12L362.042 388.088C362.042 388.088 338.701 385.844 295.91 389.285C253.118 392.726 227.084 399.31 209.579 404.846C192.073 410.38 191.325 421.601 191.325 421.601Z" fill="#263238" stroke="#263238" stroke-miterlimit="10" stroke-linecap="round" stroke-linejoin="round"/>
<path d="M165.892 409.858L192.889 419.147C192.889 419.147 203.049 404.342 252.398 396.505C301.747 388.667 364.158 390.119 364.158 390.119L385.349 382.281C385.349 382.281 304.359 377.636 251.817 384.603C199.275 391.57 172.569 401.73 165.892 409.858Z" fill="#1BD8D8" stroke="#263238" stroke-miterlimit="10" stroke-linecap="round" stroke-linejoin="round"/>
<path d="M165.892 409.858C165.892 409.858 157.183 420.599 159.506 421.469C161.828 422.34 188.244 422.63 190.276 421.759C192.308 420.888 192.889 419.146 192.889 419.146L165.892 409.858Z" fill="#263238" stroke="#263238" stroke-miterlimit="10" stroke-linecap="round" stroke-linejoin="round"/>
<path d="M65.0361 422.006L70.3501 466.71C70.3501 474.962 84.1981 481.651 101.28 481.651C118.362 481.651 132.21 474.962 132.21 466.71L137.524 422.006H65.0361Z" fill="white" stroke="#263238" stroke-miterlimit="10" stroke-linecap="round" stroke-linejoin="round"/>
<path d="M101.28 432.271C121.297 432.271 137.524 427.675 137.524 422.006C137.524 416.337 121.297 411.741 101.28 411.741C81.2631 411.741 65.0361 416.337 65.0361 422.006C65.0361 427.675 81.2631 432.271 101.28 432.271Z" fill="white" stroke="#263238" stroke-miterlimit="10" stroke-linecap="round" stroke-linejoin="round"/>
<path d="M101.28 430.005C116.878 430.005 129.523 426.424 129.523 422.006C129.523 417.588 116.878 414.007 101.28 414.007C85.6819 414.007 73.0371 417.588 73.0371 422.006C73.0371 426.424 85.6819 430.005 101.28 430.005Z" fill="#263238"/>
<path d="M39.0166 321.749C42.3726 322.67 50.0666 321.377 50.0726 321.376C50.1526 321.362 47.6806 316.563 47.4906 316.278C45.2826 312.981 39.0776 307.907 34.8046 309.128C31.7266 310.008 30.4356 313.403 31.5736 316.257C32.7356 319.171 36.1576 320.964 39.0166 321.749Z" fill="#263238"/>
<path d="M117.345 312.125C117.419 312.158 118.005 306.791 118.003 306.448C117.98 302.48 115.604 294.825 111.366 293.486C108.314 292.522 105.364 294.641 104.739 297.649C104.1 300.721 105.966 304.105 107.916 306.337C110.208 308.957 117.339 312.123 117.345 312.125Z" fill="#263238"/>
<path d="M136.33 280.809C131.889 280.973 127.562 287.719 126.484 291.538C126.391 291.868 125.528 297.198 125.609 297.185C125.609 297.185 125.684 297.173 125.702 297.17C125.011 298.23 124.282 299.374 123.51 300.64C122.104 302.989 120.537 305.657 119.028 308.675C117.512 311.687 115.949 315.002 114.618 318.643C113.279 322.29 112.057 326.195 111.318 330.381C111.309 330.428 111.307 330.479 111.299 330.526C111.135 329.235 110.555 325.639 110.479 325.368C109.41 321.547 105.097 314.791 100.656 314.618C97.4573 314.494 95.1723 317.318 95.3633 320.384C95.5583 323.515 98.2513 326.287 100.722 327.924C103.508 329.77 110.666 330.911 111.236 331C110.569 334.993 110.209 339.145 110.075 343.367C109.996 345.781 109.992 348.214 110.019 350.654C109.841 349.542 109.674 348.549 109.635 348.413C108.565 344.591 104.253 337.836 99.8123 337.664C96.6123 337.54 94.3283 340.363 94.5193 343.429C94.7143 346.56 97.4073 349.332 99.8783 350.969C102.385 352.63 108.468 353.726 110.082 353.994C110.102 354.93 110.112 355.865 110.136 356.801C110.248 361.291 110.38 365.772 110.375 370.17C110.374 371.72 110.316 373.247 110.263 374.774C110.104 373.787 109.962 372.956 109.927 372.832C108.857 369.01 104.545 362.255 100.104 362.083C96.9053 361.958 94.6203 364.782 94.8113 367.849C95.0063 370.979 97.6993 373.752 100.17 375.389C102.563 376.974 108.168 378.035 110.084 378.364C109.982 379.926 109.884 381.492 109.716 383.001C109.577 384.029 109.516 385.029 109.32 386.054C109.147 387.073 108.976 388.082 108.806 389.081C108.409 390.993 108.01 392.968 107.576 394.823C107.284 396.116 106.981 397.342 106.68 398.578C106.7 397.036 106.673 394.014 106.642 393.762C106.324 391.144 104.783 387.037 102.507 384.324C102.462 383.937 102.384 383.556 102.268 383.183C101.35 380.252 98.2073 378.431 95.2643 379.691C91.1783 381.439 89.5643 389.29 89.9313 393.241C89.9523 393.474 90.4713 395.977 90.8233 397.55C90.4753 396.656 90.1483 395.785 89.7783 394.87C89.0603 393.055 88.2903 391.265 87.4683 389.335C87.0393 388.418 86.6053 387.491 86.1663 386.555C85.7523 385.617 85.1943 384.68 84.7093 383.731C83.5353 381.555 82.2403 379.407 80.8873 377.271C82.4753 376.638 88.0813 374.31 90.1593 372.177C92.2273 370.054 94.2713 366.775 93.7993 363.673C93.3363 360.636 90.5063 358.36 87.4053 359.16C83.1023 360.269 80.3173 367.784 80.0813 371.746C80.0663 371.993 80.2163 374.855 80.3303 376.425C79.5063 375.147 78.6913 373.869 77.8173 372.603C75.2923 368.951 72.6233 365.332 69.9763 361.711C69.1643 360.602 68.3703 359.488 67.5693 358.375C68.1373 358.156 74.8603 355.533 77.1873 353.144C79.2563 351.021 81.3003 347.742 80.8283 344.64C80.3653 341.603 77.5353 339.328 74.4343 340.127C70.1313 341.236 67.3463 348.752 67.1103 352.713C67.0923 353.011 67.3153 357.129 67.4223 358.173C65.6613 355.722 63.9283 353.263 62.3183 350.769C60.0923 347.331 58.0983 343.835 56.4183 340.305C56.6823 340.203 63.7123 337.497 66.0963 335.051C68.1643 332.928 70.2093 329.649 69.7363 326.547C69.2743 323.51 66.4423 321.234 63.3423 322.033C59.0383 323.142 56.2543 330.657 56.0183 334.618C56.0023 334.879 56.1693 338.017 56.2833 339.507C56.1483 339.542 56.1733 339.535 56.0383 339.57C54.2823 335.766 53.0613 331.861 52.0983 328.149C51.5363 326 51.1193 323.915 50.7593 321.877C52.1203 321.507 58.3213 319.749 60.7093 317.784C62.9983 315.901 65.3903 312.866 65.2623 309.732C65.1353 306.663 62.5723 304.09 59.4023 304.544C55.0033 305.174 51.4103 312.338 50.7413 316.249C50.7053 316.461 50.5743 318.665 50.5013 320.271C50.3533 319.349 50.1833 318.4 50.0583 317.513C49.5823 314.186 49.3513 311.111 49.1683 308.385C49.0773 306.834 49.0253 305.43 48.9903 304.116C50.1363 303.056 54.7023 298.728 55.8953 295.935C57.0593 293.209 57.7833 289.413 56.2253 286.691C54.6983 284.025 51.2373 282.923 48.6343 284.786C45.0203 287.372 45.1323 295.386 46.3403 299.166C46.4453 299.493 48.6653 304.414 48.7253 304.359C48.7253 304.359 48.7813 304.308 48.7943 304.295C48.8023 305.56 48.8253 306.917 48.8813 308.398C49.0043 311.133 49.1693 314.222 49.5753 317.573C49.9723 320.921 50.4983 324.549 51.3963 328.319C52.2923 332.1 53.4263 336.031 55.1193 339.93C55.1383 339.974 55.1643 340.018 55.1833 340.062C54.3343 339.075 51.8673 336.396 51.6543 336.212C48.6543 333.615 41.3303 330.36 37.5313 332.665C34.7943 334.327 34.4463 337.942 36.2973 340.394C38.1873 342.898 41.9623 343.724 44.9263 343.726C48.2693 343.728 54.8693 340.731 55.3933 340.491C57.0403 344.19 59.0303 347.852 61.2483 351.446C62.5143 353.503 63.8533 355.535 65.2213 357.555C64.4593 356.726 63.7723 355.99 63.6653 355.897C60.6643 353.299 53.3403 350.045 49.5423 352.351C46.8053 354.012 46.4573 357.628 48.3083 360.079C50.1983 362.583 53.9733 363.409 56.9373 363.412C59.9443 363.414 65.6223 360.972 67.1163 360.306C67.6493 361.075 68.1723 361.85 68.7083 362.617C71.2793 366.3 73.8613 369.964 76.2833 373.636C77.1373 374.93 77.9313 376.235 78.7303 377.538C78.0523 376.802 77.4753 376.188 77.3783 376.103C74.3783 373.506 67.0543 370.25 63.2553 372.556C60.5183 374.218 60.1703 377.833 62.0213 380.285C63.9113 382.789 67.6863 383.615 70.6503 383.617C73.5203 383.619 78.7813 381.413 80.5603 380.629C81.3373 381.988 82.1193 383.348 82.8113 384.7C83.2633 385.634 83.7633 386.502 84.1653 387.465C84.5833 388.41 84.9963 389.346 85.4063 390.273C86.1293 392.087 86.8873 393.954 87.5483 395.741C88.0173 396.98 88.4413 398.17 88.8723 399.367C88.0373 398.07 86.3483 395.564 86.1833 395.371C83.6113 392.349 76.8653 388.022 72.7603 389.726C69.8043 390.954 68.9113 394.475 70.3703 397.179C71.8593 399.94 75.4653 401.329 78.3953 401.78C81.6203 402.276 88.3333 400.422 89.1703 400.185C89.8763 402.169 90.5443 404.105 91.1443 405.942C93.2233 412.245 94.7193 417.579 95.7183 421.347L98.6993 420.915C98.6743 420.829 98.6533 420.753 98.6283 420.665C97.5333 416.869 95.8953 411.471 93.6363 405.092C92.9273 403.075 92.1293 400.933 91.2903 398.742C91.7743 398.463 94.5193 396.861 96.8943 395.042C99.4993 397.153 105.68 399.17 106.48 399.424C105.975 401.468 105.463 403.451 104.951 405.315C103.207 411.719 101.512 416.993 100.268 420.687L103.54 420.213C104.661 416.565 106.071 411.716 107.499 405.982C108.021 403.908 108.537 401.682 109.045 399.391C109.897 399.444 116.866 399.838 119.917 398.668C122.684 397.607 125.915 395.486 126.785 392.471C127.637 389.52 126.02 386.268 122.87 385.694C118.498 384.898 112.821 390.555 110.947 394.053C110.837 394.26 109.888 396.632 109.313 398.14C109.516 397.203 109.723 396.295 109.92 395.328C110.323 393.418 110.668 391.5 111.047 389.438C111.195 388.436 111.345 387.423 111.495 386.401C111.667 385.391 111.719 384.301 111.837 383.241C112.058 380.779 112.163 378.272 112.213 375.744C113.887 376.093 119.847 377.244 122.757 376.611C125.653 375.981 129.168 374.374 130.484 371.527C131.773 368.739 130.668 365.279 127.641 364.235C123.44 362.786 116.971 367.518 114.589 370.692C114.44 370.89 112.987 373.359 112.215 374.731C112.233 373.211 112.259 371.695 112.227 370.157C112.136 365.718 111.906 361.227 111.696 356.747C111.631 355.374 111.583 354.006 111.529 352.636C112.123 352.766 119.178 354.288 122.437 353.579C125.333 352.95 128.848 351.342 130.165 348.495C131.454 345.707 130.348 342.247 127.322 341.203C123.121 339.754 116.652 344.486 114.27 347.66C114.091 347.899 112.005 351.456 111.519 352.386C111.402 349.37 111.314 346.362 111.347 343.395C111.387 339.299 111.653 335.284 112.198 331.412C112.475 331.474 119.831 333.095 123.169 332.369C126.065 331.739 129.58 330.132 130.897 327.284C132.187 324.496 131.081 321.036 128.054 319.992C123.852 318.543 117.384 323.275 115.003 326.449C114.846 326.657 113.255 329.364 112.528 330.67C112.396 330.624 112.42 330.633 112.288 330.587C112.922 326.447 114.058 322.516 115.302 318.89C116.019 316.788 116.821 314.819 117.645 312.92C118.984 313.362 125.126 315.316 128.202 314.995C131.15 314.687 134.82 313.476 136.442 310.791C138.03 308.161 137.311 304.6 134.417 303.23C130.4 301.328 123.451 305.322 120.735 308.215C120.587 308.373 119.263 310.138 118.316 311.438C118.701 310.587 119.083 309.702 119.467 308.894C120.905 305.856 122.409 303.164 123.76 300.79C124.54 299.446 125.271 298.247 125.967 297.131C127.508 296.88 133.703 295.788 136.239 294.117C138.713 292.485 141.412 289.719 141.614 286.588C141.808 283.521 139.529 280.692 136.33 280.809Z" fill="#263238"/>
</svg>
