<svg width="300" height="300" viewBox="0 0 1152 1009" fill="none" xmlns="http://www.w3.org/2000/svg">
<path d="M816.162 37.6928C817.296 38.0725 818.43 38.4523 819.598 38.8436C845.779 47.6336 870.788 57.4598 895.117 70.3414C900.278 73.0711 905.523 75.5386 910.852 77.9516C924.57 84.5092 937.147 93.038 949.861 101.23C952.925 103.199 955.999 105.147 959.088 107.079C979.34 119.854 998.331 133.797 1015.84 149.928C1019.44 153.222 1023.06 156.369 1026.84 159.456C1043.06 173.095 1057.85 188.201 1070.98 204.648C1072.65 206.701 1074.33 208.752 1076.01 210.803C1087.23 224.639 1097.35 238.8 1106.69 253.882C1108.33 256.505 1110.04 259.09 1111.76 261.669C1141.73 306.894 1158.57 357.364 1169.65 409.602C1170.46 413.3 1170.46 413.3 1172.09 417.784C1173.99 436.344 1173.99 436.344 1170.02 443.741C1165.94 448.342 1162.27 452.079 1155.86 452.948C1154 453.028 1154 453.028 1152.11 453.109C1150.89 453.186 1149.67 453.263 1148.42 453.343C1142.47 452.13 1138.55 448.923 1134.58 444.623C1132.79 440.371 1131.6 436.836 1130.59 432.43C1130.29 431.26 1129.99 430.09 1129.68 428.884C1128.73 425.158 1127.83 421.423 1126.94 417.685C1126.32 415.218 1125.7 412.752 1125.07 410.287C1123.58 404.379 1122.13 398.464 1120.68 392.546C1117.67 380.235 1114.54 368.124 1110.12 356.211C1109.71 355.104 1109.3 353.996 1108.87 352.855C1102.29 335.471 1094.66 318.86 1085.66 302.533C1085 301.343 1084.35 300.153 1083.67 298.926C1075.85 284.805 1067.79 271.222 1057.93 258.327C1056.66 256.581 1055.39 254.831 1054.12 253.079C1028.07 217.086 996.079 182.634 960.082 155.706C958.347 154.361 956.614 153.012 954.884 151.661C889.618 100.922 791.664 37.035 705.674 35.7193C749.972 42.975 803.367 75.254 839.738 98.6052C842.769 100.516 845.841 102.341 848.938 104.149C884.287 124.85 917.214 149.844 946.029 178.512C949.416 181.713 952.84 184.717 956.419 187.707C976.568 204.639 994.926 223.245 1010.64 244.118C1012.11 246.027 1012.11 246.027 1013.62 247.975C1021.54 258.33 1028.7 268.961 1035.51 280.035C1036.55 281.734 1037.6 283.433 1038.68 285.184C1066.64 331.053 1066.64 331.053 1074.33 355.958C1075.76 360.587 1077.44 364.97 1079.34 369.433C1088.48 391.141 1093.7 413.672 1096.43 436.92C1096.8 441.364 1096.8 441.364 1098.7 444.623C1108.08 500.271 1100.53 563.036 1084.02 616.71C1083.7 617.785 1083.37 618.861 1083.03 619.97C1079.16 632.451 1074.29 644.291 1068.45 656.037C1066.25 660.57 1064.37 665.125 1062.52 669.796C1050.29 698.589 1030.69 725.198 1010.64 749.327C1009.93 750.176 1009.23 751.026 1008.5 751.902C998.145 764.256 986.947 775.731 975.371 787.02C974.107 788.259 972.842 789.497 971.54 790.774C962.778 799.21 953.55 806.749 943.774 814.057C942.724 814.859 941.675 815.661 940.594 816.488C909.833 839.956 875.8 858.349 841.032 875.628C839.755 876.269 838.477 876.91 837.161 877.57C801.965 894.921 761.465 903.897 723.002 911.54C714.789 913.208 707.051 915.523 699.151 918.255C815.807 921.535 926.353 883.509 1015.53 810.899C1016.6 810.061 1017.67 809.222 1018.77 808.358C1024.85 803.51 1030 798.268 1035.09 792.453C1038.22 788.953 1041.46 785.57 1044.73 782.196C1066.11 760.059 1083.16 735.084 1099.36 709.241C1103.5 702.639 1106.83 698.738 1111.32 692.923C1093.98 804.873 1049.8 909.737 954.68 981.505C951.079 984.151 947.433 986.73 943.774 989.3C941.958 990.613 940.142 991.927 938.327 993.241C924.577 1003.09 910.188 1011.86 895.452 1020.25C892.896 1021.71 890.347 1023.18 887.806 1024.66C864.646 1038.09 840.48 1047.27 814.939 1055.61C813.441 1056.1 811.944 1056.6 810.4 1057.11C790.697 1063.53 770.915 1067.61 750.373 1070.59C746.743 1071.12 743.115 1071.66 739.49 1072.22C697.501 1078.57 655.832 1078.55 613.421 1078.35C466.123 1077.75 286.782 1021.92 178.529 925.154L181.791 921.206C181.791 921.206 209.592 930.285 220.192 914.949C226.429 905.925 227.454 895.946 222.561 884.105L225.823 880.158C319.68 970.079 512.925 1042.04 653.488 1012.98C532.768 1013.64 419.112 991.775 315.908 924.571C314.483 923.681 313.057 922.792 311.589 921.876C287.265 906.554 264.115 889.655 242.521 870.892C241.296 869.84 241.296 869.84 240.047 868.767C227.464 857.931 215.513 846.48 203.585 834.975C202.13 833.574 200.675 832.173 199.176 830.729C190.998 822.793 183.165 814.695 175.657 806.163C174.051 804.379 172.444 802.597 170.835 800.816C125.445 750.169 85.6474 693.308 59.609 631.001C58.3588 628.046 57.0497 625.114 55.7346 622.186C51.1901 611.768 46.3907 603.722 40.2992 589.87C41.9586 601.602 44.4913 612.666 48.2813 623.925C49.4754 627.512 50.5938 631.123 51.6321 634.754C58.0175 656.493 67.9938 676.773 77.808 697.227C78.2753 698.204 78.7426 699.182 79.2241 700.189C99.6017 742.779 123.578 781.335 154.054 817.923C155.923 820.173 157.768 822.442 159.61 824.713C169.766 837.062 180.958 848.421 192.165 859.868C196.839 864.645 201.496 869.436 206.133 874.247C206.917 875.049 207.701 875.85 208.508 876.676C222.279 890.995 222.279 890.995 222.136 899.31C221.176 916.092 209.592 922.843 190.837 920.474C178.606 918.106 171.568 908.57 163.732 900.198C162.685 899.097 161.639 897.996 160.561 896.862C151.22 886.926 142.44 876.615 133.985 865.966C131.613 862.984 129.212 860.025 126.809 857.066C107.348 832.82 91.3886 806.335 76.3444 779.355C74.6923 776.425 72.9938 773.527 71.272 770.634C35.4866 708.991 17.4861 638.578 6.55508 569.329C-4.37545 500.08 -4.93864 374.95 38.5981 316.387C38.5583 330.825 38.6022 345.265 38.5838 359.704C38.5754 366.112 38.564 372.519 38.5453 378.927C38.374 438.145 48.4301 494 71.1725 549.27C72.6186 552.828 73.9983 556.396 75.3427 559.991C80.7542 574.03 87.7946 587.315 95.2374 600.428C96.0873 601.93 96.9371 603.432 97.8127 604.979C105.333 618.15 113.359 630.94 121.84 643.549C123.521 646.07 123.521 646.07 125.236 648.643C132.009 658.654 139.233 668.208 146.812 677.653C149.731 681.29 149.494 680.501 151.94 683.658C152.756 684.448 151.94 683.658 152.826 684.597C155.601 687.764 158.204 690.949 160.776 694.267C175.67 713.388 192.093 731.042 209.638 747.902C212.469 750.625 215.282 753.365 218.094 756.107C228.977 766.657 240.192 776.403 252.306 785.639C254.491 787.37 256.673 789.107 258.848 790.85C282.449 809.605 306.799 827.649 332.216 844.053C332.754 832.07 333.292 820.088 333.847 807.742C441.583 825.125 475.042 890.499 504.981 896.862C569.908 909.536 648.121 873.292 710.567 853.526C711.723 853.16 712.879 852.794 714.07 852.418C749.614 840.883 781.731 823.471 811.309 801.323C847.312 774.406 872.666 740.06 885.064 697.227C885.352 696.275 885.64 695.323 885.937 694.342C889.023 682.899 888.974 671.393 888.938 659.633C888.937 658.551 888.936 657.47 888.935 656.356C888.865 637.826 887.143 620.352 881.803 602.5C881.471 601.368 881.138 600.236 880.796 599.069C864.538 545.571 825.791 502.988 775.74 476.255C709.82 442.578 647.648 454.095 568.685 454.095C568.147 579.135 594.882 768.034 594.327 896.862C575.969 895.085 578.571 962.033 548.827 914.949C547.784 914.569 535.402 911.931 534.327 911.54C524.32 952.801 501.434 986.519 517.827 884.105C517.827 972.905 504.981 952.91 488.827 940.41C488.827 949.91 495.273 890.713 478.5 883.5C478.5 936.483 372.429 835.348 333.847 807.742C343.5 832.642 302.609 708.513 301.638 707.82C281.482 693.338 262.697 677.267 244.152 660.915C242.556 659.535 240.961 658.156 239.317 656.734C228.82 647.616 219.195 638.04 209.905 627.761C207.156 624.863 204.404 621.969 201.648 619.078C194.238 611.177 187.274 603.061 180.55 594.607C179.831 593.71 179.112 592.813 178.372 591.888C160.285 569.25 144.077 545.582 129.994 520.404C129.481 519.489 128.967 518.574 128.438 517.632C109.039 482.719 94.8557 444.664 85.4525 406.14C85.0368 404.451 84.6211 402.762 84.1928 401.022C74.4787 359.553 73.6418 305.566 85.9621 264.642C86.4259 263.088 86.8897 261.534 87.3676 259.933C106.575 197.324 144.829 149.801 203.77 117.387C258.633 88.8499 324.061 76.3829 385.931 76.4715C387.64 76.4721 387.64 76.4721 389.383 76.4728C429.002 76.5402 469.361 77.3889 508.345 84.6614C510.498 85.0402 512.651 85.4184 514.805 85.7961C576.167 97.0645 636.507 116.716 692.628 143.076C693.871 143.656 695.114 144.237 696.395 144.835C703.26 148.051 752.968 173.713 764.384 190.439C733.242 180.827 704.281 170.224 673.262 159.456C658.721 154.59 644.131 150.336 629.23 146.628C627.529 146.204 625.829 145.779 624.077 145.342C618.669 144.019 613.251 142.75 607.825 141.497C606.763 141.248 605.701 140.999 604.606 140.742C585.632 136.317 566.619 133.255 547.28 130.745C542.657 130.145 538.036 129.528 533.416 128.907C509.156 125.674 485.45 123.753 460.949 123.736C459.582 123.735 458.215 123.734 456.806 123.733C432.938 123.762 409.615 125.077 386.033 128.867C384.418 129.121 382.803 129.375 381.139 129.637C326.24 138.622 273.346 159.169 232.736 196.755C230.699 198.522 230.699 198.522 228.621 200.325C171.089 252.165 170.936 340.864 202.464 405.844C215.764 433.748 233.334 459.167 253.937 482.513C255.07 483.806 256.203 485.098 257.37 486.43C267.397 497.55 278.423 507.467 289.815 517.247C290.699 518.007 291.583 518.767 292.494 519.55C301.961 527.634 311.581 535.073 321.988 542C322.973 542.657 323.957 543.315 324.971 543.992C327.385 545.604 329.8 547.213 332.216 548.822C332.223 547.188 332.23 545.554 332.237 543.871C332.405 504.173 332.582 464.476 332.77 424.778C332.86 405.581 332.947 386.384 333.027 367.187C333.097 350.461 333.172 333.735 333.255 317.01C333.298 308.148 333.339 299.286 333.372 290.424C333.404 282.093 333.444 273.762 333.489 265.431C333.504 262.364 333.517 259.297 333.526 256.23C333.54 252.061 333.563 247.893 333.589 243.725C333.591 242.495 333.592 241.265 333.594 239.997C333.661 231.668 333.661 231.668 335.478 229.909C337.939 229.754 340.408 229.71 342.875 229.708C344.477 229.704 346.079 229.7 347.73 229.695C349.505 229.698 351.279 229.701 353.108 229.705C354.968 229.702 356.828 229.699 358.745 229.696C364.97 229.689 371.195 229.694 377.42 229.699C381.797 229.698 386.174 229.697 390.55 229.695C399.802 229.692 409.054 229.696 418.306 229.703C427.636 229.711 436.966 229.711 446.296 229.703C503.962 229.656 561.591 230.038 619.241 231.488C607.009 218.708 556.914 205.514 543.314 202.404C538.95 201.404 534.599 200.361 530.246 199.32C502.37 192.79 434.142 182.397 403.54 185.346C474.762 146.369 603.088 175.127 681.254 194.386C685.593 195.45 689.938 196.487 694.284 197.525C710.246 201.399 725.802 206.202 741.352 211.401C744.711 212.508 748.08 213.573 751.458 214.621C762.167 217.952 772.541 221.557 782.701 226.255C786.933 228.2 791.187 230.082 795.459 231.944C856.158 258.602 856.158 258.602 878.598 273.609C882.09 275.949 882.09 275.949 887.205 278.555C895.4 282.987 902.697 288.717 910.126 294.239C912.789 296.218 915.46 298.186 918.133 300.152C926.717 306.487 935.173 312.915 943.468 319.603C951.623 326.115 959.753 332.423 969.867 335.687C969.006 334.164 969.006 334.164 968.128 332.61C967.323 331.183 966.518 329.756 965.688 328.286C964.782 326.685 963.876 325.083 962.943 323.433C961.127 320.187 959.335 316.928 957.579 313.652C945.98 292.161 932.354 271.65 917.681 252.012C916.07 249.797 914.461 247.581 912.852 245.364C903.865 233.052 894.867 221.19 884.109 210.261C880.979 207.055 878.003 203.805 875.037 200.461C867.729 192.338 859.903 184.736 852.04 177.119C850.609 175.713 849.177 174.308 847.702 172.86C839.053 164.469 830.12 156.733 820.56 149.326C817.382 146.863 814.275 144.364 811.213 141.769C753.017 92.6406 629.23 30.0447 534.125 24.5001C625.327 8.00595 727.858 7.97209 816.162 37.6928Z" fill="url(#paint0_linear_155_165)"/>
<defs>
<linearGradient id="paint0_linear_155_165" x1="1197" y1="426.53" x2="-4.66963" y2="494.742" gradientUnits="userSpaceOnUse">
<stop offset="0.45" stop-color="#EA580C"/>
<stop offset="0.51" stop-color="#00008B"/>
</linearGradient>
</defs>
</svg>
