<svg width="187" height="241" viewBox="0 0 187 241" fill="none" xmlns="http://www.w3.org/2000/svg">
<g clip-path="url(#clip0_9_51)">
<path d="M54 237C87.6825 237 119.985 224.726 143.803 202.878C167.62 181.03 181 151.398 181 120.5C181 89.6023 167.62 59.9701 143.803 38.1221C119.985 16.2741 87.6825 4.00001 54 4L54 86.4597C63.8418 86.4597 73.2804 90.0461 80.2396 96.4299C87.1987 102.814 91.1084 111.472 91.1084 120.5C91.1084 129.528 87.1987 138.186 80.2396 144.57C73.2804 150.954 63.8418 154.54 54 154.54L54 237Z" fill="#25275F"/>
<path d="M102.057 127V118.273H105.108C105.716 118.273 106.217 118.378 106.612 118.588C107.007 118.795 107.301 119.075 107.494 119.428C107.688 119.777 107.784 120.165 107.784 120.591C107.784 120.966 107.717 121.276 107.584 121.52C107.453 121.764 107.28 121.957 107.064 122.099C106.851 122.241 106.619 122.347 106.369 122.415V122.5C106.636 122.517 106.905 122.611 107.175 122.781C107.445 122.952 107.67 123.196 107.852 123.514C108.034 123.832 108.125 124.222 108.125 124.682C108.125 125.119 108.026 125.513 107.827 125.862C107.628 126.212 107.314 126.489 106.885 126.693C106.456 126.898 105.898 127 105.21 127H102.057ZM103.114 126.062H105.21C105.901 126.062 106.391 125.929 106.68 125.662C106.973 125.392 107.119 125.065 107.119 124.682C107.119 124.386 107.044 124.114 106.893 123.864C106.743 123.611 106.528 123.409 106.25 123.259C105.972 123.105 105.642 123.028 105.261 123.028H103.114V126.062ZM103.114 122.108H105.074C105.392 122.108 105.679 122.045 105.935 121.92C106.193 121.795 106.398 121.619 106.548 121.392C106.702 121.165 106.778 120.898 106.778 120.591C106.778 120.207 106.645 119.882 106.378 119.615C106.111 119.345 105.688 119.21 105.108 119.21H103.114V122.108Z" fill="black"/>
<path d="M68.7036 161.545H63.7226C57.2485 161.545 52.0003 166.796 52.0003 173.273C52 179.749 57.2485 185 63.7226 185H80.4262H127.902C148.91 185 166 167.902 166 146.886C166 136.655 161.948 127.353 155.367 120.5C161.948 113.647 166 104.345 166 94.1137C166 73.0975 148.91 56 127.902 56H80.4262H63.7226C57.2485 56 52 61.2507 52 67.7272C52 74.2036 57.2485 79.4543 63.7223 79.4543H68.7036V120.5V161.545ZM92.1485 79.4546H127.902C135.982 79.4546 142.555 86.0305 142.555 94.1137C142.555 102.197 135.982 108.773 127.902 108.773H92.1485V79.4546ZM92.1485 132.227H127.902C135.982 132.227 142.555 138.803 142.555 146.886C142.555 154.969 135.982 161.545 127.902 161.545H92.1485V132.227Z" fill="#1BD8D8"/>
<path d="M46.1485 161.545V132.227H63V108.773H46.1485V79.4546H63V56H34.4262H17.7226C11.2485 56 6 61.2507 6 67.7272C6 74.2036 11.2485 79.4543 17.7223 79.4543H22.7036V120.5V161.545H17.7226C11.2485 161.545 6.00025 166.796 6.00025 173.273C6 179.749 11.2485 185 17.7226 185H34.4262H63V161.545H46.1485Z" fill="#25275F"/>
<path d="M117.256 139.01C118.199 139.157 118.82 139.881 118.642 140.627L115.633 153.246C115.455 153.993 114.546 154.48 113.602 154.333C112.658 154.187 112.037 153.463 112.215 152.716L115.224 140.097C115.402 139.351 116.312 138.864 117.256 139.01ZM110.356 141.724C111.027 142.272 111.014 143.145 110.326 143.672L106.594 146.539L110.238 149.516C110.909 150.065 110.896 150.937 110.209 151.464C109.522 151.992 108.421 151.976 107.75 151.427L102.89 147.457C102.568 147.194 102.39 146.841 102.396 146.476C102.401 146.11 102.59 145.763 102.92 145.509L107.897 141.687C108.584 141.159 109.685 141.176 110.356 141.724ZM123.107 141.916L127.967 145.886C128.289 146.15 128.467 146.503 128.462 146.868C128.456 147.233 128.268 147.581 127.938 147.834L122.961 151.656C122.274 152.184 121.173 152.168 120.502 151.619C119.831 151.071 119.844 150.199 120.531 149.671L124.264 146.805L120.619 143.827C119.948 143.279 119.961 142.407 120.648 141.879C121.336 141.351 122.437 141.368 123.107 141.916Z" fill="#373A8B"/>
<path d="M114.853 96.014C114.434 96.014 113.816 95.9638 113.249 95.7256L108.713 93.8138H106.491V96.7912C106.491 97.7066 107.114 98.7454 107.881 99.1102L113.374 101.725C114.141 102.09 115.387 102.092 116.155 101.729L121.708 99.1065C122.475 98.7438 123.098 97.7065 123.098 96.7911V93.8138H120.646L116.627 95.6675C116.143 95.891 115.513 96.0139 114.853 96.0139V96.014ZM102.584 89.9274L113.522 94.5377C114.304 94.8663 115.562 94.8449 116.333 94.489L126.779 89.6725V96.7787L126.134 99.1343H128L127.332 96.7541V89.3852H127.313C127.765 89.045 127.659 88.6206 126.991 88.3594L116.364 84.2227C115.576 83.915 114.302 83.9281 113.518 84.2499L102.589 88.7477C101.805 89.0701 101.803 89.5986 102.584 89.9273L102.584 89.9274Z" fill="#373A8B"/>
</g>
<defs>
<clipPath id="clip0_9_51">
<rect width="187" height="241" fill="white"/>
</clipPath>
</defs>
</svg>
